P2
# 8-bit pgm - grayscale
20 20
255
135
144
151
137
143
151
145
144
154
169
163
151
159
169
169
159
153
162
157
175
146
140
150
141
147
153
157
141
136
151
158
129
127
143
135
121
123
130
137
149
154
159
171
171
170
182
201
204
196
199
188
155
147
143
134
110
98
103
117
132
146
155
176
187
203
214
228
242
233
235
227
213
199
184
159
137
123
126
144
160
129
150
194
213
218
226
230
234
241
240
232
226
215
195
170
167
143
140
144
161
113
146
188
217
230
239
224
216
220
229
235
236
229
208
189
173
152
144
129
167
112
152
195
219
227
231
214
199
211
227
236
236
230
219
197
187
165
148
128
150
140
163
194
197
190
206
215
208
207
216
210
202
209
204
200
180
161
136
117
143
139
151
176
179
175
182
202
211
206
199
186
179
189
202
197
184
161
135
111
132
128
151
177
175
165
160
193
214
216
207
175
170
179
199
221
201
167
130
101
127
123
141
170
167
147
149
158
191
207
196
175
166
174
206
226
213
174
137
106
121
109
131
167
180
145
145
157
181
201
199
183
191
205
217
219
201
187
145
112
122
104
121
156
172
155
155
166
190
201
200
196
200
205
204
211
182
170
150
130
140
95
99
138
161
171
165
179
199
209
202
187
183
193
201
189
157
157
140
144
157
95
93
125
142
166
187
206
216
227
220
203
197
198
198
179
160
161
142
127
142
92
77
104
135
166
187
213
215
224
223
213
199
186
185
170
149
153
137
137
150
103
66
83
117
146
161
179
202
217
221
212
206
189
170
156
129
122
129
122
125
117
73
58
61
102
128
162
185
187
191
190
196
187
156
142
123
102
101
98
117
120
86
66
55
69
95
132
141
143
138
146
144
142
126
109
95
82
79
88
125
139
119
107
101
85
83
103
122
131
134
137
140
141
132
122
119
106
97
93
124
